<svg id="sky" xmlns="http://www.w3.org/2000/svg" viewBox="0 0 1366.42 768"><defs><style>.cls-1{fill:#a6e9ff;}.cls-2{fill:#fff;}</style></defs><title>bg</title><polygon class="cls-1" points="0 0 1366.41 0 1366.41 768 0 768 0 0 0 0 0 0"/><path class="cls-2" d="M796.24,369.52c65.73,0,119,36.94,119,82.49S862,534.5,796.24,534.5s-119-36.93-119-82.49,53.28-82.49,119-82.49Z" transform="translate(0.42)"/><path class="cls-2" d="M1144.32,61c69.42,0,125.7,26.52,125.7,59.23s-56.28,59.23-125.7,59.23-125.69-26.52-125.69-59.23S1074.9,61,1144.32,61Z" transform="translate(0.42)"/><path class="cls-2" d="M974.42,369.59c88.81,0,160.81,31.08,160.81,69.42s-72,69.43-160.81,69.43S813.62,477.36,813.62,439s72-69.42,160.8-69.42Z" transform="translate(0.42)"/><path class="cls-2" d="M979.09,77.54c69.42,0,125.69,26.52,125.69,59.23S1048.51,196,979.09,196s-125.7-26.52-125.7-59.23,56.28-59.23,125.7-59.23Z" transform="translate(0.42)"/><path class="cls-2" d="M210.77,185.7c40.58,0,73.47,21.07,73.47,47.05s-32.89,47-73.47,47-73.47-21.06-73.47-47,32.89-47.05,73.47-47.05Z" transform="translate(0.42)"/><path class="cls-2" d="M909.56,428.55c73.49,0,133.07,31,133.07,69.26s-59.58,69.26-133.07,69.26-133.07-31-133.07-69.26,59.58-69.26,133.07-69.26Z" transform="translate(0.42)"/><path class="cls-2" d="M152.1,73.23c77.59,0,140.48,38.37,140.48,85.7s-62.89,85.7-140.48,85.7S11.62,206.26,11.62,158.93s62.9-85.7,140.48-85.7Z" transform="translate(0.42)"/><path class="cls-2" d="M268.77,105.46c72.58,0,131.41,28.56,131.41,63.79S341.35,233,268.77,233s-131.41-28.56-131.41-63.79,58.83-63.79,131.41-63.79Z" transform="translate(0.42)"/><path class="cls-2" d="M1213.2,642.54c34.68,0,62.8,16,62.8,35.73S1247.88,714,1213.2,714s-62.81-16-62.81-35.73,28.12-35.73,62.81-35.73Z" transform="translate(0.42)"/><path class="cls-2" d="M223.09,590.54c69.42,0,125.69,26.52,125.69,59.23S292.51,709,223.09,709s-125.7-26.52-125.7-59.23,56.28-59.23,125.7-59.23Z" transform="translate(0.42)"/><path class="cls-2" d="M246.7,526c56.5,0,102.3,35.82,102.3,80s-45.8,80-102.3,80-102.31-35.82-102.31-80,45.8-80,102.31-80Z" transform="translate(0.42)"/><path class="cls-2" d="M316.09,566.54c69.42,0,125.69,26.52,125.69,59.23S385.51,685,316.09,685s-125.7-26.52-125.7-59.23,56.28-59.23,125.7-59.23Z" transform="translate(0.42)"/><path class="cls-2" d="M1173.31,626C1230,626,1276,644.58,1276,667.5S1230,709,1173.31,709s-102.68-18.58-102.68-41.5,46-41.5,102.68-41.5Z" transform="translate(0.42)"/><path class="cls-2" d="M1095.32,110c69.42,0,125.7,26.52,125.7,59.23s-56.28,59.23-125.7,59.23-125.69-26.52-125.69-59.23S1025.9,110,1095.32,110Z" transform="translate(0.42)"/></svg>