<svg id="logo1" xmlns="http://www.w3.org/2000/svg" viewBox="0 0 461.4 912.7"><defs><style>.cls-1,.cls-3{fill:#fff;}.cls-1,.cls-2{stroke:#000;}.cls-1,.cls-2,.cls-4{stroke-miterlimit:10;}.cls-1{stroke-width:21px;}.cls-2{fill:#0bcb0e;stroke-width:18.4px;}.cls-4{fill:none;stroke:#fff;stroke-linecap:round;stroke-width:20.02px;}</style></defs><title>logo-sign</title><line class="cls-1" x1="240.7" y1="107.7" x2="240.7" y2="912.7"/><path class="cls-2" d="M830.1,305c35.29,0,63.9,27.67,63.9,61.81v40.38c0,34.14-28.61,61.81-63.9,61.81H514.9c-35.29,0-63.9-27.67-63.9-61.81V366.81c0-34.14,28.61-61.81,63.9-61.81Z" transform="translate(-441.8 -295.8)"/><path class="cls-3" d="M580,346.56v76c0,5.63-3.45,8.44-10.5,8.44s-10.5-2.81-10.5-8.44V393H527v29.56c0,5.63-3.45,8.44-10.5,8.44s-10.5-2.81-10.5-8.44v-76c0-5.64,3.45-8.45,10.5-8.45s10.5,2.81,10.5,8.45V374h32V346.56c0-5.64,3.45-8.45,10.5-8.45S580,340.92,580,346.56Z" transform="translate(-441.8 -295.8)"/><path class="cls-3" d="M620.43,365.5c19.92,0,32.29,12.92,32.29,32.43,0,20.06-12.92,33-32.84,33s-32.3-12.92-32.3-32.43C587.58,378.42,600.5,365.5,620.43,365.5Zm-.14,48.78c7,0,11.27-6,11.27-15.8,0-10.31-4.54-16.35-11.55-16.35s-11.27,6-11.27,15.8C608.74,408.24,613.28,414.28,620.29,414.28Z" transform="translate(-441.8 -295.8)"/><path class="cls-3" d="M690.38,365.5c19.92,0,32.29,12.92,32.29,32.43,0,20.06-12.92,33-32.84,33s-32.3-12.92-32.3-32.43C657.53,378.42,670.45,365.5,690.38,365.5Zm-.14,48.78c7,0,11.27-6,11.27-15.8,0-10.31-4.54-16.35-11.54-16.35s-11.27,6-11.27,15.8C678.7,408.24,683.23,414.28,690.24,414.28Z" transform="translate(-441.8 -295.8)"/><path class="cls-3" d="M760.33,365.5c19.92,0,32.29,12.92,32.29,32.43,0,20.06-12.92,33-32.84,33S727.49,418,727.49,398.48C727.49,378.42,740.4,365.5,760.33,365.5Zm-.14,48.78c7,0,11.27-6,11.27-15.8,0-10.31-4.54-16.35-11.54-16.35s-11.27,6-11.27,15.8C748.65,408.24,753.18,414.28,760.19,414.28Z" transform="translate(-441.8 -295.8)"/><line class="cls-4" x1="226.2" y1="50.2" x2="226.08" y2="106.2"/><line class="cls-4" x1="296.2" y1="50.2" x2="296.08" y2="106.2"/><path class="cls-3" d="M852,369.66c0,2.38-.8,6.47-2.25,11.62-4.88,17.29-16.89,44.61-30,60.72-4.49,5.54-7.4,7.79-11.22,7.79-5.15,0-10.7-4-10.7-9.11,0-3.17,2.25-5.68,4.76-8.19,3.3-3.3,8.18-8.84,9.37-11.09l-19.54-46.06c-.79-2-1.71-4-1.71-5.94,0-3.3,2.24-6.08,9.5-6.08s9.5,2.38,11.49,7.79l11.35,31.95c2.77-6.21,7-18.75,9.9-31.82.92-4.22,1.71-7.92,10-7.92C850.38,363.32,852,366.23,852,369.66Z" transform="translate(-441.8 -295.8)"/></svg>