<svg id="logo1" xmlns="http://www.w3.org/2000/svg" viewBox="0 0 439.74 912.37"><defs><style>.cls-1,.cls-3{fill:#fff;}.cls-1,.cls-2{stroke:#000;}.cls-1,.cls-2,.cls-4{stroke-miterlimit:10;}.cls-1{stroke-width:21px;}.cls-2{fill:#0bcb0e;stroke-width:17.74px;}.cls-4{fill:none;stroke:#fff;stroke-linecap:round;stroke-width:20.02px;}</style></defs><title>logo-sign</title><line class="cls-1" x1="224.37" y1="107.37" x2="224.37" y2="912.37"/><path class="cls-2" d="M828.12,305c33.63,0,60.88,27,60.88,60.3v39.4c0,33.3-27.25,60.3-60.88,60.3H527.88C494.25,465,467,438,467,404.7V365.3c0-33.3,27.25-60.3,60.88-60.3Z" transform="translate(-458.13 -296.13)"/><path class="cls-3" d="M596,346.55v76c0,5.63-3.45,8.44-10.5,8.44s-10.5-2.81-10.5-8.44V393H543v29.56c0,5.63-3.45,8.44-10.5,8.44s-10.5-2.81-10.5-8.44v-76c0-5.63,3.45-8.44,10.5-8.44s10.5,2.81,10.5,8.44V374h32V346.55c0-5.63,3.45-8.44,10.5-8.44S596,340.92,596,346.55Z" transform="translate(-458.13 -296.13)"/><path class="cls-3" d="M636.43,365.5c19.92,0,32.29,12.92,32.29,32.43,0,20.06-12.92,33-32.84,33s-32.3-12.92-32.3-32.43C603.58,378.42,616.5,365.5,636.43,365.5Zm-.14,48.78c7,0,11.27-6,11.27-15.8,0-10.31-4.54-16.35-11.55-16.35s-11.27,6-11.27,15.8C624.74,408.24,629.28,414.28,636.29,414.28Z" transform="translate(-458.13 -296.13)"/><path class="cls-3" d="M706.38,365.5c19.92,0,32.29,12.92,32.29,32.43,0,20.06-12.92,33-32.84,33s-32.3-12.92-32.3-32.43C673.53,378.42,686.45,365.5,706.38,365.5Zm-.14,48.78c7,0,11.27-6,11.27-15.8,0-10.31-4.54-16.35-11.54-16.35s-11.27,6-11.27,15.8C694.7,408.24,699.23,414.28,706.24,414.28Z" transform="translate(-458.13 -296.13)"/><path class="cls-3" d="M776.33,365.5c19.92,0,32.29,12.92,32.29,32.43,0,20.06-12.92,33-32.84,33S743.49,418,743.49,398.48C743.49,378.42,756.4,365.5,776.33,365.5Zm-.14,48.78c7,0,11.27-6,11.27-15.8,0-10.31-4.54-16.35-11.54-16.35s-11.27,6-11.27,15.8C764.65,408.24,769.18,414.28,776.19,414.28Z" transform="translate(-458.13 -296.13)"/><path class="cls-3" d="M826.77,360.28c-7,0-11.82-4.67-11.82-11.55s4.81-11.54,11.82-11.54,11.82,4.67,11.82,11.54S833.78,360.28,826.77,360.28ZM837,422.43q0,8.38-10.5,8.39T816,422.43V374q0-8.4,10.5-8.4T837,374Z" transform="translate(-458.13 -296.13)"/><line class="cls-4" x1="225.87" y1="49.87" x2="225.75" y2="105.87"/><line class="cls-4" x1="295.87" y1="49.87" x2="295.75" y2="105.87"/></svg>