<?xml version="1.0" standalone="no"?>
<!DOCTYPE svg PUBLIC "-//W3C//DTD SVG 20010904//EN"
 "http://www.w3.org/TR/2001/REC-SVG-20010904/DTD/svg10.dtd">
<svg version="1.0" xmlns="http://www.w3.org/2000/svg"
 width="700.000000pt" height="700.000000pt" viewBox="0 0 700.000000 700.000000"
 preserveAspectRatio="xMidYMid meet">
<metadata>
Created by potrace 1.11, written by Peter Selinger 2001-2013
</metadata>
<g transform="translate(0.000000,700.000000) scale(0.100000,-0.100000)"
fill="#000000" stroke="none">
<path d="M865 6985 c-111 -20 -183 -44 -281 -91 -278 -134 -478 -383 -557
-693 l-22 -86 0 -2595 c0 -1427 3 -2616 7 -2642 35 -239 176 -484 373 -649 96
-80 254 -158 407 -201 l83 -23 2595 -2 c2106 -1 2609 1 2667 12 429 78 754
395 843 822 17 84 18 210 19 2658 0 2190 -2 2581 -14 2645 -42 220 -137 402
-290 555 -130 130 -290 223 -474 273 l-96 27 -2595 1 c-2084 2 -2609 -1 -2665
-11z"/>
</g>
</svg>
